<svg width="200" height="210" xmlns="http://www.w3.org/2000/svg">
  <style>
    path {
      stroke-width: 5px;
      stroke: black;
    }
  </style>

  <defs>
    <filter id="softGlow" height="300%" width="300%" x="-75%" y="-75%">
      <!-- Thicken out the original shape -->
      <feMorphology operator="dilate" radius="4" in="SourceAlpha" result="thicken" />

      <!-- Use a gaussian blur to create the soft blurriness of the glow -->
      <feGaussianBlur in="thicken" stdDeviation="10" result="blurred" />

      <!-- Change the colour -->
      <feFlood flood-color="rgb(255,255,255)" result="glowColor" />

      <!-- Color in the glows -->
      <feComposite in="glowColor" in2="blurred" operator="in" result="softGlow_colored" />

      <!--	Layer the effects together -->
      <feMerge>
        <feMergeNode in="softGlow_colored"/>
        <feMergeNode in="SourceGraphic"/>
      </feMerge>
    </filter>
  </defs>

  <g filter="url(#softGlow)">

    <!-- Tower -->
    <path d="M100 50 L50 200 L150 200 Z" fill="white" />

    <!-- Cross members -->
    <path d="M83 100 L117 100" fill="transparent" stroke-linecap="round" />
    <path d="M66 150 L133 150" fill="transparent" stroke-linecap="round" />

    <!-- Braces -->
    <path d="M83 100 L133 150" fill="transparent" stroke-linecap="round" />
    <path d="M117 100 L66 150" fill="transparent" stroke-linecap="round" />
    <path d="M66 150 L117 100" fill="transparent" stroke-linecap="round" />
    <path d="M133 150 L83 100" fill="transparent" stroke-linecap="round" />
    <path d="M50 200 L133 150" fill="transparent" stroke-linecap="round" />
    <path d="M150 200 L66 150" fill="transparent" stroke-linecap="round" />
    <path d="M66 150 L150 200" fill="transparent" stroke-linecap="round" />
    <path d="M133 150 L50 200" fill="transparent" stroke-linecap="round" />


    <!-- Emmission lines -->
    <!-- closest -->
    <path d="M120 30 A20 30 0 0 1 120 70" fill="transparent" stroke-linecap="round" />
    <path d="M80 30 A20 30 0 0 0 80 70" fill="transparent" stroke-linecap="round" />

    <!-- next -->
    <path d="M140 25 A20 40 0 0 1 140 75" fill="transparent" stroke-linecap="round" />
    <path d="M60 25 A20 40 0 0 0 60 75" fill="transparent" stroke-linecap="round" />

    <!-- furthest -->
    <path d="M160 20 A20 50 0 0 1 160 80" fill="transparent" stroke-linecap="round" />
    <path d="M40 20 A20 50 0 0 0 40 80" fill="transparent" stroke-linecap="round" />
  </g>
</svg>
